#!OML:ASF E:\emotionWalksFemale\Project 1\Capture day 1\Session 1\Female1.ASF
:FULLY-SPECIFIED
:DEGREES
468
root 9.34517 15.3044 -5.19155 -178.572 1.31277 -173.582
lowerback 4.26221 2.81353 5.29057
upperback -4.33122 4.34555 0.538299
thorax -6.57999 1.96427 -2.81808
lowerneck -6.94902 -3.58003 -7.8225
upperneck 19.6512 -6.39016 7.68884
head 7.65427 -3.37015 3.22033
rclavicle -2.33075e-014 -7.95139e-016
rhumerus -29.1873 11.7516 -88.8579
rradius 34.8613
rwrist 18.8323
rhand 1.13511 -51.3368
rfingers 7.12502
rthumb 26.6772 -79.4768
lclavicle -2.33075e-014 -7.95139e-016
lhumerus -43.2556 2.69746 84.8921
lradius 42.4729
lwrist -7.11786
lhand -4.62959 -36.3634
lfingers 7.12502
lthumb 21.1493 -7.49694
rfemur 16.4016 11.7581 40.1994
rtibia 4.77083e-015
rfoot -9.57362 -24.9201
rtoes 8.68393
lfemur -34.1349 -16.5792 -11.1214
ltibia 29.8713
lfoot -20.1229 20.6582
ltoes -19.4891
469
root 9.34427 15.2987 -5.32012 -178.312 1.67501 -173.527
lowerback 4.21247 2.90225 5.38208
upperback -4.49323 4.48624 0.52254
thorax -6.70604 2.02701 -2.90071
lowerneck -6.32463 -3.34087 -8.07235
upperneck 19.0245 -6.11683 8.25967
head 7.33578 -3.22214 3.48712
rclavicle -1.86361e-014 -1.15295e-014
rhumerus -28.9859 11.8336 -88.9047
rradius 34.9329
rwrist 18.7977
rhand 1.44992 -51.5724
rfingers 7.12502
rthumb 26.9784 -79.6661
lclavicle -1.86361e-014 -1.15295e-014
lhumerus -43.2551 2.69377 84.7192
lradius 42.1329
lwrist -6.68016
lhand -4.99781 -36.8835
lfingers 7.12502
lthumb 20.7955 -7.9779
rfemur 16.6304 11.705 40.2396
rtibia 0
rfoot -9.71497 -24.8262
rtoes 9.28101
lfemur -34.6947 -19.1148 -9.64637
ltibia 28.4643
lfoot -21.3943 22.6703
ltoes -17.8083
470
root 9.3424 15.2929 -5.44996 -178.201 2.04839 -173.536
lowerback 4.28786 2.98691 5.44245
upperback -4.60264 4.61767 0.485566
thorax -6.8488 2.08324 -2.99371
lowerneck -7.08623 -3.48444 -7.75694
upperneck 19.9188 -6.27119 7.57381
head 7.75116 -3.32287 3.18049
rclavicle 1.1778e-014 -5.96354e-015
rhumerus -28.8016 11.7671 -88.9295
rradius 35.0121
rwrist 19.0591
rhand 1.54601 -51.7288
rfingers 7.12502
rthumb 27.0703 -79.8082
lclavicle 1.1778e-014 -5.96354e-015
lhumerus -43.1278 2.35883 84.6548
lradius 41.6862
lwrist -5.89017
lhand -4.90442 -36.5973
lfingers 7.12502
lthumb 20.8852 -7.70155
rfemur 17.0617 11.6147 40.2155
rtibia 1.74931e-014
rfoot -10.0294 -24.6297
rtoes 10.4413
lfemur -35.2518 -22.2317 -7.93528
ltibia 27.2913
lfoot -23.3164 25.0289
ltoes -14.0567
471
root 9.33768 15.2833 -5.58032 -178.067 2.3539 -173.447
lowerback 4.23894 3.02293 5.5781
upperback -4.597 4.67753 0.526488
thorax -6.80352 2.10983 -3.02758
lowerneck -6.8644 -3.32553 -8.13903
upperneck 19.4418 -6.05423 8.12166
head 7.56211 -3.19572 3.45146
rclavicle 6.23687e-014 2.46493e-014
rhumerus -28.4578 11.9754 -88.8957
rradius 35.082
rwrist 19.2461
rhand 1.48306 -51.767
rfingers 7.12502
rthumb 27.0101 -79.8558
lclavicle 6.23687e-014 2.46493e-014
lhumerus -43.7265 2.60603 84.4371
lradius 42.7731
lwrist -5.64381
lhand -4.71501 -35.8867
lfingers 7.12502
lthumb 21.0672 -7.01107
rfemur 17.4927 11.4694 40.2821
rtibia -5.08889e-014
rfoot -10.1094 -24.4105
rtoes 10.572
lfemur -36.0271 -25.5801 -5.88053
ltibia 26.3398
lfoot -26.1787 27.2674
ltoes -7.52501
472
root 9.33464 15.2736 -5.71451 -177.821 2.74665 -173.3
lowerback 3.94276 3.08739 5.67353
upperback -4.57451 4.76 0.608705
thorax -6.60149 2.15874 -2.97996
lowerneck -7.61358 -3.4074 -7.92865
upperneck 20.0754 -6.08926 7.58611
head 7.88925 -3.22638 3.22388
rclavicle 5.96354e-016 6.75868e-015
rhumerus -28.1565 12.2662 -88.8984
rradius 35.1559
rwrist 19.1325
rhand 1.24484 -51.8026
rfingers 7.12502
rthumb 26.7822 -79.9265
lclavicle 5.96354e-016 6.75868e-015
lhumerus -43.6103 3.05287 84.144
lradius 42.6094
lwrist -5.7494
lhand -5.12845 -35.6667
lfingers 7.12502
lthumb 20.67 -6.74733
rfemur 17.8214 11.4478 40.38
rtibia 1.27222e-014
rfoot -10.1068 -24.1883
rtoes 10.5147
lfemur -37.0748 -28.692 -3.63151
ltibia 25.631
lfoot -29.1723 29.6516
ltoes -2.38847
